<svg id="Layer_2" xmlns="http://www.w3.org/2000/svg" viewBox="0 0 232.1 61.1"><style>.st0{fill:none}.st1{fill:#662f87}.st2{fill:#5eb893}</style><path class="st0" d="M54.9 11.3c.7.9 1.3 1.9 1.9 2.8-.6-.9-1.2-1.9-1.9-2.8zM59.8 21.6l-.1-.6-.3-.8.3.8.1.6zM59.9 22l-.1-.5.1.5zM59.4 20.1z"/><path class="st0" d="M59.5 17c-.5-.9-1-1.7-1.5-2.6-1.3-2.2-3-4.3-4.8-6.1-.8-.8-1.6-1.6-2.4-2.3-1.4-1-2.8-2-4.3-2.9-.1-.1-.3-.1-.4-.1h-.2.2c.2 0 .3 0 .4.1C48 4 49.4 5 50.7 6c.8.7 1.7 1.4 2.4 2.2 1.8 1.8 3.4 3.9 4.8 6.1.6.9 1.1 1.8 1.6 2.7zM21.6 26H26c3.9.1 6.3.3 8.9.4 3.2.1 6.7 0 9.6 0l-.5-.5c-1.6-1.6-5-5.4-6.3-6.7L31.8 13l-5.9 6.2c-1.3 1.3-4.6 5.2-6.2 6.9.6-.2 1.1-.1 1.9-.1zM59.8 17.2zM59.6 17.2c0 .1.1.1.2.1-.1-.1-.2-.1-.2-.1zM59.9 17.1zM44.4 32.5V28h-1.6c-2.6.2-10.3 0-11.1 0-.2.1-8.9 0-9.1 0-1.1-.1-2-.1-3.1-.1 0 1.5-.1 3.5-.1 4.3 0 1-.3 11.3-.4 12.5s-.4 4.2-.5 5.7c.4.2.8.5 1.3.7l.4.2.3.2.6.3.2.1.2.1c.7.3 1.4.5 2.1.7 3.8-1 9.1-3.9 9.2-5.4 0-.3 0-.5-.2-.6-.4-.3-.9-.4-1.4-.5-.3-.1-.5-.1-.8-.1-.7-.1-1.5-.2-2.2-.2l-3.4-.2c-.6 0-1.2-.1-1.9-.2-.6-.1-1.2-.2-1.7-.4-.4-.1-.6-.3-.8-.7-.1-.3-.1-.6.1-.8v-.1s.1-.2.2-.2c.1-.1.3-.3.4-.3 0-.1.2-.2.3-.2.3-.2.5-.4.8-.5s.5-.2.8-.4.5-.2.8-.3.6-.2.9-.4c.6-.3 1.3-.5 2-.7.5-.2 1-.3 1.5-.5l1.3-.4 1.2-.4h.3l-.2.1c-.3.1-.5.2-.8.3-.5.2-1.1.4-1.6.7s-1 .5-1.5.8c-.6.3-1.1.7-1.5 1.1-.2.1-.3.3-.3.5 0 .4.3.8.7.9.3.1.7.1 1 .2h9.8l1.4.1h.4l.8.1 2.1.3c.4.1.8.3 1.2.5.3.3.5.7.5 1.1 0 0 .2 3.4-3.4 7h.1l.3-.1.2-.1.3-.1.4-.1.3-.1.3-.1.4-.2.2.1.3-.1.2-.1.3-.1.3-.1.3-.1.2-.1.2-.1.3-.1.2-.1.3-.2.2-.1.2-.1.2-.1.1-.1c-.1-1.4-.4-4.6-.5-5.6s-.5-11.6-.5-12.6zM53.1 6.6c.7.6 1.3 1.3 2 1.9 1.1 1.1 2.1 2.4 2.9 3.7.7 1.1 1.3 2.3 1.7 3.5.1.3.2.6.2.9v.3c0 .1-.1.1-.1.2 0 0 .1 0 .1-.1v-.1-.2-.2c0-.3-.1-.6-.2-.9-.4-1.2-1-2.4-1.7-3.5-.9-1.1-1.9-2.4-3-3.5-.6-.7-1.2-1.3-1.9-2l-.1-.1.1.1z"/><path class="st0" d="M45.8 3.1c0 .1.1.2.2.2.4.2.8.5 1.2.7 2.7 1.7 5 3.8 7 6.3 1 1.2 1.8 2.4 2.6 3.7.8 1.3 1.4 2.7 2 4.1l.7 1.8-.7-1.8c-.6-1.4-1.2-2.8-2-4.1-.6-1-1.2-1.9-1.9-2.8-.2-.3-.5-.6-.7-.9-2-2.5-4.3-4.6-7-6.3-.4-.3-.8-.5-1.2-.7-.1 0-.2 0-.2-.2 0-.1 0-.1.1-.1 0 .1-.1.1-.1.1zM59.4 23.2l.1-.1-.1.1zM59.4 20.2l.3.8.1.5.1.5c.2.8.2.5-.4 1 .6-.5.5-.3.4-1l-.1-.5-.1-.5-.3-.8V20v.2zM59.5 23.1z"/><path class="st1" d="M86.7 45l-4-11.6h-4.5v16.5h2.7V37.3l3.9 11.5h2.8l4-11.3v12.4h3.2V33.4h-4zM108.9 48c-.2 0-.4-.1-.6-.2-.2-.1-.3-.5-.3-1.2v-5.4c.1-.8-.2-1.6-.6-2.3-.5-.5-1-.9-1.7-1.1-.8-.3-1.6-.4-2.4-.4-1.5 0-3 .3-4.4.8v2.3c1.2-.7 2.5-1.1 3.9-1.1.6 0 1.1.1 1.6.4.5.4.7.9.6 1.5v1.1h-1c-2.2 0-3.8.4-4.8 1.2-.9.7-1.5 1.8-1.5 3 0 1.9 1.5 3.5 3.3 3.5h.3c.4 0 .8 0 1.2-.2.4-.1.7-.3 1.1-.4.4-.3.9-.6 1.2-1h.1c.1.5.5 1 1 1.3.5.2 1 .3 1.6.3.6 0 1.3-.1 1.9-.3V48h-.5zm-4-1.2c-.4.3-.8.6-1.2.8-.4.2-.8.3-1.2.3-.4 0-.8-.2-1.1-.4-.3-.3-.5-.7-.5-1.2 0-.6.3-1.1.8-1.4.7-.4 1.6-.6 2.4-.6h.8v2.5zM117.2 38.1c-.7.5-1.2 1.1-1.6 1.9v-2.3h-3.3v12.2h3.3v-7.8c.4-.6.8-1.1 1.4-1.5.5-.3 1.2-.5 1.8-.5.4 0 .9.1 1.3.3v-2.9c-.2 0-.4-.1-.6-.1-.8 0-1.6.2-2.3.7zM127.5 45.8l-3-8.1h-3.6l4.6 12.2-2.8 4.4h3.3l7.6-16.6h-2.5zM135.9 32.3h3.3v17.6h-3.3zM153.4 48c-.2 0-.4-.1-.6-.2-.2-.1-.3-.5-.3-1.2v-5.4c.1-.8-.2-1.6-.6-2.3-.5-.5-1.1-.9-1.8-1.1-.8-.3-1.6-.4-2.4-.4-1.5 0-3 .3-4.4.8v2.3c1.2-.7 2.5-1.1 3.9-1.1.6 0 1.1.1 1.6.4.5.4.7.9.6 1.5v1.1h-.9c-2.2 0-3.8.4-4.8 1.2-.9.7-1.5 1.8-1.5 3 0 1.9 1.5 3.5 3.3 3.5h.3c.4 0 .8 0 1.2-.2.4-.1.7-.3 1.1-.4.4-.3.9-.6 1.2-1h.1c.1.5.5 1 1 1.3.5.2 1 .3 1.6.3.6 0 1.3-.1 1.9-.3V48h-.5zm-4.1-1.2c-.4.3-.8.6-1.2.8-.4.2-.8.3-1.2.3-.4 0-.8-.2-1.1-.4-.3-.3-.5-.7-.5-1.2 0-.6.3-1.1.8-1.4.7-.4 1.6-.6 2.4-.6h.8v2.5zM164.2 37.4c-.8 0-1.5.2-2.2.6-.8.5-1.5 1.2-2 2v-2.3h-3.3v12.2h3.3v-7.7c.4-.7.9-1.3 1.6-1.8.4-.3.9-.4 1.4-.5.2 0 .5.1.7.2.2.1.4.3.5.5.2.4.2.9.2 1.4v7.8h3.3v-8.6c.1-1.1-.3-2.1-1-2.9-.7-.6-1.6-.9-2.5-.9zM179.2 38.9c-.3-.4-.7-.7-1.2-1-.3-.2-.7-.3-1.1-.4-.4-.1-.8-.1-1.2-.1-1.5-.1-2.9.7-3.8 1.9-.9 1.4-1.4 3.1-1.4 4.8-.1 1.6.4 3.1 1.2 4.4.8 1.1 2.1 1.7 3.4 1.7.8 0 1.6-.2 2.3-.7.7-.5 1.3-1.2 1.6-1.9v2.3h3.3V32.3H179l.2 6.6zm0 6.8c-.4.5-.8 1-1.3 1.4-.4.3-.9.5-1.4.5-.7 0-1.4-.4-1.8-1-.4-.8-.6-1.8-.6-2.7 0-1 .2-2.1.6-3 .3-.8 1.1-1.3 2-1.3.4 0 .8.1 1.2.3.5.3.9.6 1.3 1v4.8zM81.6 19.6h6.8v7.5h3.5V10.7h-3.5v6.6h-6.8v-6.6h-3.4v16.4h3.4zM103.9 26.6c.9-.5 1.7-1.3 2.1-2.3 1-2.1 1-4.5 0-6.7-.5-1-1.2-1.8-2.2-2.3-2.2-1-4.7-1-6.8 0-.9.5-1.7 1.3-2.2 2.3-1 2.1-1 4.5 0 6.7.5 1 1.2 1.8 2.2 2.3 2.2 1 4.7 1 6.9 0zm-5.5-2.5c-.5-.9-.7-2-.7-3.1s.2-2.1.7-3.1c.6-1.2 2.1-1.6 3.3-.9.4.2.7.5.9.9.5 1 .7 2 .7 3.1s-.2 2.1-.7 3.1c-.7 1.2-2.1 1.6-3.3.9-.3-.2-.7-.5-.9-.9zM116.8 22.6c-.4.7-.9 1.3-1.6 1.8-.4.3-.9.4-1.4.5-.2 0-.5-.1-.7-.2-.2-.1-.4-.3-.5-.5-.2-.4-.2-.9-.2-1.4V15h-3.3v8.6c-.1 1.1.3 2.1 1 2.9.7.6 1.6.9 2.5.9.8 0 1.5-.2 2.2-.6.8-.5 1.5-1.2 2-2v2.3h3.2V14.9h-3.3l.1 7.7zM130.8 26.2c.8-.7 1.3-1.6 1.3-2.7 0-.7-.2-1.4-.7-2-.9-.8-2-1.4-3.1-1.7l-1-.4c-.4-.1-.8-.4-1.2-.7-.4-.4-.4-1.1-.1-1.5l.2-.2c.5-.3 1-.4 1.5-.3 1.1.1 2.2.3 3.3.7V15c-1.2-.3-2.3-.4-3.5-.4-1.3-.1-2.7.2-3.8 1-.8.6-1.3 1.6-1.2 2.6 0 .8.3 1.6.8 2.1.7.7 1.6 1.2 2.5 1.5l1.1.4c.5.2.9.4 1.3.7.3.2.4.5.4.9s-.2.8-.6 1c-.4.3-1 .4-1.5.4-1.4-.1-2.9-.4-4.2-1v2.4c1.4.4 2.9.7 4.4.7 1.6.2 3-.2 4.1-1.1zM144.7 24.4c-1.2.5-2.4.7-3.7.8-.7 0-1.4-.1-2-.4-.5-.3-.9-.7-1.2-1.1-.3-.6-.5-1.3-.6-1.9h7.5c0-2.7-.5-4.5-1.4-5.5-1-1-2.3-1.6-3.7-1.5-1.1 0-2.2.3-3.2.8-.9.6-1.6 1.4-2 2.3-.9 2.1-.9 4.5.1 6.6.5 1 1.3 1.8 2.3 2.3 1.1.5 2.3.8 3.5.7 1.5 0 3-.2 4.4-.7v-2.4zm-6.8-6.9c.4-.5.9-.8 1.6-.8.6 0 1.1.3 1.4.7.4.7.6 1.6.6 2.4h-4.4c0-.8.3-1.6.8-2.3zM162.8 26.6c.9-.5 1.7-1.3 2.2-2.3 1-2.1 1-4.5 0-6.7-.5-1-1.2-1.8-2.1-2.3-2.2-1-4.7-1-6.8 0-.9.5-1.7 1.3-2.1 2.3-1 2.1-1 4.5 0 6.7.5 1 1.2 1.8 2.2 2.3 2 1 4.5 1 6.6 0zm-5.5-2.5c-.5-.9-.7-2-.7-3.1s.2-2.1.7-3.1c.6-1.2 2.1-1.6 3.3-.9.4.2.7.5.9.9.5 1 .7 2 .7 3.1s-.2 2.1-.7 3.1c-.7 1.2-2.1 1.6-3.3.9-.3-.2-.6-.5-.9-.9zM171.8 27.1V17h3.1v-2h-3.1v-1c0-.6 0-1.1.2-1.7.1-.3.3-.5.6-.7.3-.1.6-.2.9-.2.9 0 1.7.2 2.5.6V9.7c-1-.3-2-.4-3-.4-1.2-.1-2.4.3-3.3 1.1-.9 1-1.3 2.3-1.2 3.7v.9h-1.7v2h1.7v10.2h3.3zM194.1 17.5c.5-.8.8-1.8.8-2.7 0-.8-.2-1.5-.6-2.2-.4-.6-.9-1.1-1.6-1.4-.9-.4-1.9-.5-2.9-.5h-6.1v16.4h3.2v-6.7h1.9l4.1 6.7h4.1l-5.4-7.7c1.1-.4 1.9-1 2.5-1.9zm-3.4-.3c-.8.7-1.9 1-2.9.9h-.8v-5.2h1.2c.9-.1 1.9.1 2.7.6.4.4.7 1 .7 1.6-.1.8-.4 1.5-.9 2.1zM205.6 22.6c-.4.7-.9 1.3-1.6 1.8-.4.3-.9.4-1.4.5-.2 0-.5-.1-.7-.2-.2-.1-.4-.3-.5-.5-.2-.4-.2-.9-.2-1.4V15H198v8.6c-.1 1.1.3 2.1 1 2.9.7.6 1.6.9 2.5.9.8 0 1.5-.2 2.2-.6.8-.5 1.5-1.2 2-2v2.3h3.3V14.9h-3.3l-.1 7.7zM216.4 24.7c-.4-.5-.5-1.1-.5-1.8v-6h2.6v-2h-2.6v-2.4l-3.3.4v2h-1.4v2h1.4v6.4c0 .8.1 1.6.4 2.3.3.5.8 1 1.3 1.2.8.3 1.6.5 2.5.5.6 0 1.3-.1 1.9-.3v-2c-.3.1-.7.1-1 .1-.5.1-1-.1-1.3-.4zM231.1 15.6c-.7-.6-1.6-.9-2.5-.9-.8 0-1.5.2-2.2.6-.8.5-1.5 1.2-2 2V9.6h-3.3v17.5h3.3v-7.7c.4-.7.9-1.3 1.6-1.8.4-.3.9-.4 1.4-.5.2 0 .5.1.7.2.2.1.4.3.5.5.2.4.2.9.2 1.4V27h3.3v-8.6c.1-1-.3-2-1-2.8zM64.5 28.7v-1.9c-.1-.2 0-.4 0-.5V26c-.1-.1 0-.3 0-.4v-.1c-.1-.1 0-.2 0-.3V25v-.4-.3l-.1-.7-.2-.9v-.1-.2c-.1-.4-.2-.9-.3-1.3-.1-.4-.1-.8-.2-1.3v-.2c-1-3.8-2.8-7.4-5.2-10.6-.7-.9-1.4-1.8-2.1-2.6-.5-.6-1.1-1.2-1.7-1.7-.4-.4-.8-.7-1.2-1.1h-.2l-.3-.2c-.1-.1-.1-.2-.2-.2s-.1 0-.1-.1c-.2-.2-.4-.3-.7-.3-.1 0-.2-.1-.2-.1-.1 0-.3-.1-.4-.1H51l.5.4.8.6.1.1.3.3.6.5c.5.4 1 .9 1.4 1.4v-.2h.1c.1.1.3.2.4.4.7.8 1.5 1.6 2.2 2.5 1 1.3 1.9 2.6 2.7 4 .6 1.2 1.2 2.4 1.6 3.6 0 .1.1.2.1.3v.1h-.1-.1c-.1-.3-.4-.5-.8-.5h-.2-.2c-.1-.1-.1-.2-.2-.3 0-.1-.1-.1-.1-.2v-.1l-.1-.3-.1-.5c-.2-.6-.4-1.1-.6-1.7v-.1l-.1-.2c-.8-2-2-3.7-3.5-5.2-.3-.3-.6-.5-1.1-.6-.4-.1-.7-.3-1-.5l-.1-.1-1-.8c-.2-.1-.4-.3-.6-.5 0 .1 0 .3.1.4v.2c.3.4.6.7 1 1l.1.1c.7.6 1.3 1.3 2 1.9 1.1 1.1 2.1 2.4 2.9 3.7.7 1.1 1.3 2.3 1.7 3.5.1.3.2.6.2.9v.5s0 .1-.1.1-.1 0-.2-.1l-.1-.2c-.5-.9-1-1.7-1.5-2.6-1.3-2.2-3-4.3-4.8-6.1-.8-.8-1.6-1.5-2.5-2.2C49.4 5 48 4 46.5 3.1c-.1-.1-.3-.1-.4-.1h-.2c-.1 0-.1.1-.1.1 0 .1.1.2.2.2.4.2.8.5 1.2.7 2.7 1.7 5 3.8 7 6.3.2.3.5.6.7.9.7.9 1.3 1.9 1.9 2.8.8 1.3 1.4 2.7 2 4.1l.7 1.8v.1l.3.8.1.5.1.5c.2.8.2.5-.4 1l-.1.1h-.1v-.2c0-.4-.1-.7-.1-1.1 0-.1 0-.2-.1-.3V21c-.1-.3-.1-.5-.2-.8-.3-.9-.6-1.8-1-2.6v-.1s0-.1-.1-.2l-.3-.5-.2-.5-.2-.5v-.1c-.5-.9-1-1.8-1.5-2.8-.1-.2-.2-.5-.3-.7-.2-.4-.6-.6-1-.6l-.9.2c-.1 0-.3 0-.4-.1-1.1-1.3-2.5-2.5-3.9-3.4l-2.3-1.8c-.2-.2-.4-.3-.7-.4l-.2.2c-.4-.1-.8-.2-1.2-.4 2.2 1.3 4.2 2.8 5.9 4.6 1.2 1.3 2.3 2.6 3.2 4.1.2.3.4.7.6 1l.2.3c.2.4.4.8.7 1.2s.4.7.6 1.1c1.4 3.2 2.1 6.6 2.1 10.1v.1c0 .2-.1 1.7-.2 2.9v.2c0 .3-.1.6-.1.8v.3c-.1.3-.1.6-.2.9 0 .2-.1.3-.1.5s-.1.5-.2.8-.1.4-.2.6c-1 3.3-2.6 6.4-4.9 9l-.1.1c-.2.3-.6.5-.8.8s-.7.7-1 1l-.3.3c-.3.3-.6.5-.9.8l-.5.4c0-1.4-.1-2.9-.2-4.2-.1-3.1-.1-6.3.1-9.4.1-2.1.2-3 .2-3v-1.6c.9.6 1.9 1 3 1.2.9 0 .8-.4.8-.6-.6-1.2-1.5-2.4-2.5-3.4-1.6-1.7-4.3-4.5-4.3-4.5-.8-.8-4.9-4.5-6.6-6s-6.5-5.8-7-6.2h-.2-.1c-.5.4-5.3 4.7-7 6.2s-5.8 5.2-6.6 6c0 0-2.8 2.7-4.3 4.5-1.1 1-2 2.1-2.8 3.4 0 .2-.1.6.8.6 1.3-.3 2.5-.8 3.6-1.5l.2-.2v2.1s.1 1 .2 3c.2 3.1.2 6.3.1 9.4-.1 1.4-.1 3.1-.2 4.6l-.1-.1.1.1.4.4 1 1.1c.2.2.4.4.6.5l.3.3.3.2.3.2c.3.2.6.4 1.1.6.2.1.6.2.6.3s-.2.3-.2.3H20c-.1 0-.2.2-.2.4 0 .1 0 .3.1.4.3.3.6.5 1 .7l1.2.6c.1.1.2.1.3.1.4 0 .5.3.6.6 0 .1 0 .2-.1.3h-.1-.4c-1.3-.5-2.6-1.2-3.8-2-.1-.1-.2-.2-.4-.2-.2-.1-.4-.2-.6-.2-.3-.1-.7-.4-.8-.3s-.1.3.1.6c.2.2.4.4.7.6 1.2.6 2.3 1.4 3.5 2 .1 0 .1.1.2.1v.1c.1 0 .1 0 .1.1H21.7c.1 0 .1.1.2.1.2 0 .2.2.4.2h.1c.1 0 .2.1.3.1l.1.1c.1.1.2.2.3.2.1 0 .2 0 .3.1.1.1.3.1.4.1.1 0 .1 0 .2.1l.2.1c.1 0 .3.1.3.3 0 .1.1.2.1.3-.1.2-.2.3-.5.2s-.6-.2-.8-.3-.5-.2-.8-.3l-.7-.3c-.1-.1-.3-.1-.4-.2l-.3-.1c-.1-.1-.2-.1-.3-.1l-.1-.1h-.1l-.1-.1c-.1 0-.1 0-.2-.1h-.1c-.1 0-.2-.1-.3-.1-.9-.5-1.8-.9-2.7-1.5-.6-.4-1.1-.7-1.7-1.1-.1 0-.5-.2-.7-.1-.2.3.4.8.9 1.5.1.2.4.4.3.6s-.4-.1-.6-.1h-.1l-.2-.1c-.1-.1-.3-.1-.4-.2l-.3-.1c-.1-.1-.3-.1-.4-.2-.2-.1-.4-.3-.6-.4 3.4 3.1 9.5 5 9.5 5l.6.2.3.1.6.2c2.8.8 5.8 1.1 8.7.9.9 0 1.8-.1 2.6-.2 3.7-.5 7.3-1.6 10.7-3.4l.3-.1c.7-.3 1.4-.7 2.1-1.1 1-.6 1.9-1.2 2.8-1.8 3.1-2.4 5.8-5.3 7.7-8.7l.1-.1c.2-.4.4-.7.6-1.1.2-.4.4-.8.7-1.2l.1-.2.4-.8.3-.6c.1-.1.1-.2.1-.3l.1-.1c.1-.1.1-.2.1-.3l.1-.2c.1-.1.1-.2.1-.3l.1-.1c.1-.1.1-.3.2-.4l.1-.3c.1-.2.1-.3.2-.5l.2-.5c.3-.7.5-1.5.7-2.2l.1-.5c0-.2.1-.3.1-.5l.1-.3c0-.2.1-.3.1-.4v-.1c0-.1.1-.2.1-.3l.1-.2c0-.1.1-.2 0-.3v-.1c0-.1.1-.2 0-.3.1-.6.1-1.2.2-1.8v-.4-.5c.1-.7.1-1.3.1-2h.1zm-38.8-9.6l5.9-6.2 5.9 6.2c1.3 1.3 4.8 5.1 6.3 6.7l.5.5c-2.9.1-6.3.1-9.5 0-2.5-.1-5-.2-8.9-.4l-4.4-.1h-2.1c1.7-1.5 5-5.4 6.3-6.7zm19.5 31.3l-.2.1-.2.1-.2.1-.3.2-.1.1-.3.1-.2.1-.2.1-.3.1-.3.1-.3.1-.2.1-.3.3-.3.1-.4.2-.3.1-.3.1-.4.1-.3.1-.2.1-.3.2h-.1c3.6-3.6 3.4-7 3.4-7 0-.4-.2-.8-.5-1.1-.3-.3-.7-.4-1.2-.5-.7-.2-1.4-.3-2.2-.4l-.8-.1h-.4l-1.4-.1h-9.6c-.3-.1-.7-.1-1-.2-.4-.1-.7-.4-.7-.9 0-.2.1-.4.3-.5.4-.4.9-.8 1.5-1.1.5-.3 1-.5 1.5-.8s1-.5 1.6-.7c.3-.1.5-.2.8-.3l.3-.2-.3.1-1.2.3-1.3.4c-.5.2-1 .3-1.5.5-.7.2-1.3.5-2 .7-.3.1-.6.2-.9.4s-.5.2-.8.3-.5.2-.8.4-.6.3-.8.5c-.1 0-.2.1-.3.2-.2.1-.3.2-.4.3-.1 0-.1.1-.2.2s0 .1 0 .1c-.2.2-.2.5-.1.8.1.3.4.6.8.7.6.2 1.1.3 1.7.4.6.1 1.2.1 1.9.2l3.4.2c.7 0 1.5.1 2.2.2.3 0 .5.1.8.1.5.1 1 .3 1.4.5.2.2.2.3.2.6-.1 1.5-5.4 4.4-9.2 5.4-.7-.2-1.4-.4-2.1-.7l-.2-.1-.2-.1-.6-.3-.3-.2-.4-.2c-.4-.2-.8-.5-1.3-.7.1-1.5.4-4.6.5-5.7s.4-11.5.4-12.5c0-.8.1-2.9.1-4.3 1.1 0 2 0 3.1.1.2 0 8.9.1 9.1 0 .8 0 8.5.2 11.1 0h1.6v4.5c0 .9.3 11.1.4 12.2s.4 4.2.5 5.6l-.2.2zm.5-44.1z"/><path class="st2" d="M45.7 6.3zM61.8 16.1c-.4-1.2-1-2.5-1.6-3.6-.8-1.4-1.7-2.7-2.7-4-.7-.9-1.4-1.7-2.2-2.5-.1-.1-.2-.3-.4-.4h-.1v.1l.2.1c.2.2.3.5.4.8 0 0 .1.3-.1.1l-.1-.1c-.9-.8-1.7-1.5-2.7-2.2S50.9 3.3 50 2.8l-.2-.1-.4-.2-.5-.3-.6-.3h-.1l-.1-.1-1.8-.9c-.1 0-.1-.1-.2-.1H46c-.6-.3-1.2-.6-1.8-.8H43c-.2 0-.4-.1-.5.1l.4.4c.6.4 1.2.8 1.9 1.2 0 .2-.1 0-.2 0h-1.1l-1.6-.5c-1-.2-1.9-.3-2.7-.5-.1 0-.2-.1-.2 0H35.6c-.3 0-.3.1-.3.3l.1.2c.1.1.2.2.3.2h1.1c.1 0 .2 0 .3.1V1h.4c.1 0 .2.1.4.1 0 0 .1.1.2.1h.4l.2.1c1.2.2 2.3.6 3.4.8.5.1.7.4 1 .7h-.8c-.3 0-.6 0-.9-.1-1.4-.4-2.6-.6-3.8-.7h-.4v.1c0 .1-.1.2-.1.3.2.2.3.4.6.3h.3c.2 0 .5.1.7 0h.1c.1.1.2.1.4.1.4 0 .7.1 1 .3.1.1.2.2.2.3-.3.5.1.7.1.7 1.1.3 2.2.8 3.2 1.3l.1.1.6.3c.4.2.8.3 1.2.4l.4.1c.3.1.5.2.7.4L49 8.5c1.4 1 2.8 2.2 3.9 3.5.1.1.2.2.4.1l.9-.2c.4 0 .8.2 1 .6.1.2.2.5.3.7.5 1 1 1.9 1.5 2.8v.1l.2.5.2.5.3.5c0 .1 0 .1.1.2v.1c.4.8.7 1.7 1 2.6.1.2.1.5.2.8V21.6c0 .1 0 .2.1.3.1.4.2.8.3 1.1v.2h.1l.1-.1c.6-.5.5-.3.4-1l-.1-.5-.2-.6-.3-.8v-.1l-.7-1.8c-.6-1.4-1.2-2.8-2-4.1-.8-1.3-1.6-2.6-2.6-3.7-2-2.5-4.3-4.6-7-6.3-.4-.3-.8-.5-1.2-.7-.1-.1-.2-.1-.2-.2s0-.1.1-.1h.2c.2 0 .3 0 .4.1C48 4 49.4 5 50.7 6c.8.7 1.7 1.4 2.4 2.2 1.8 1.8 3.4 3.9 4.8 6.1.5.9 1 1.7 1.5 2.6v.1l.1.1c0 .1.1.1.2.1s.1-.1.1-.2v-.3c0-.3-.1-.6-.2-.9-.4-1.2-1-2.4-1.7-3.5-.9-1.4-1.9-2.6-3-3.8-.6-.7-1.3-1.3-2-1.9l-.1-.1c-.4-.3-.7-.6-1-1l-.1-.1c-.1-.1-.1-.2-.1-.4.2.2.4.3.6.5l1 .8.1.1c.3.2.6.4 1 .5.4.1.8.3 1.1.6 1.6 1.5 2.8 3.2 3.7 5.2l.1.2v.1c.2.5.5 1.1.6 1.7l.1.5.1.3v.1c0 .1.1.1.1.2.1.1.2.2.2.3h.4c.4-.1.7.1.9.5h.2v-.1-.4zM23.9 57h-.2c-.1 0-.1-.1-.2-.1s-.3-.1-.4-.1c-.1-.1-.2-.1-.3-.1-.1 0-.2-.1-.3-.2l-.1-.1c-.1-.1-.2-.1-.3-.1H22c-.1-.1-.2-.2-.4-.2 0-.1-.1-.1-.2-.2H21.1l-.1-.1v-.1c-.1 0-.1-.1-.2-.1-1.2-.7-2.3-1.4-3.5-2-.3-.1-.5-.3-.7-.6-.2-.2-.2-.4-.1-.6s.6.2.8.3c.2.1.4.1.6.2.1.1.3.1.4.2 1.2.8 2.4 1.5 3.8 2l.3.1h.2c.1-.1.2-.2.1-.3-.1-.3-.2-.6-.6-.6-.1 0-.2 0-.3-.1l-1.2-.6c-.4-.2-.7-.4-1-.7-.1-.1-.2-.3-.1-.4 0-.2.1-.4.2-.4h.2c.1 0 .3-.2.2-.3s-.4-.2-.6-.3c-.4-.2-.8-.4-1.1-.6l-.3-.2H18l-.3-.3c-.2-.2-.4-.3-.6-.5l-1-1.3-.4-.4-.1-.1-1-.9-.9-.9-.7-.9c0-.1-.1-.2-.2-.2-.4-.4-.7-.8-1.1-1.2-.6-.7-1.1-1.4-1.6-2.1-.4-.6-.8-1.3-1.1-2l-.6-1.2c-.3-.8-.7-1.6-.9-2.5V36c-.2-.8-.5-1.8-.6-2.8-.1-.5-.2-.9-.2-1.3s-.1-.6-.1-.8l-.1-.5c-.1-.7-.1-1.4-.1-2.2l-.2-1.8c0-.4-.1-.7-.1-1 0-.3-.1-.6-.1-.8 0-.2-.7-2.4-1.1-2.1-.3 0 0 1.5 0 1.8 0 .5.3 3.2.3 3.7s-.1.9-.2 1.4c0 .1-.2.2-.3.2 0 0-.1 0-.1-.1-.5-.7-.6-1.4-.7-2.1-.1-.7-.1-4-.1-4.7 0-.5.1-1.5.1-2.2v-.6-.4-1.2c-.1-.3-.1-.7-.1-1 0-.1 0-.1-.1-.2-.2 0 0-.3-.2-.3s-.1.6-.1 1-.1 2.3-.1 2.5 0 .5-.2.5-.3-.1-.4-.5.1-2 .1-2.5c0-.1 0-.3.1-.5v-.4c.1-.2.1-.5 0-.7 0-.1 0-.2-.1-.2s-.1.1-.1.2c-.1.3-.2.5-.2.8-.1.5-.3 1.2-.3 1.4l-.3 2.6c-.2 1.2-.2 2.3-.2 2.3v4.3c0 .2.2.4.3.5.2.2.3.4.4.6l.3.6.2 1.1v1.1c0 .1 0 .2-.1.2s-.2-.1-.2-.1c-.2-.3-.4-.6-.4-1 0-.1 0-.3-.1-.3-.2 0-.3 0-.4.2-.1.2-.1.4-.2.6v.6c.1 1.2.4 2.4.9 3.6l.5 1.2c.2.6.5 1.1.7 1.7.1.2.2.4.2.7v.2H3.5l-.1-.1c-.3-.1-.5-.4-.6-.7-.6-1.3-1-2.6-1.3-4-.2-.9-.3-1.8-.4-2.7v-.4-.5-.3-.3c-.1-.2 0-.3 0-.5v-.5-.6-.4-.7-.5-.4c-.1-.3-.2-.5-.2-.7s0-.1-.1-.2-.1.2-.1.2c-.1.2-.2.4-.4.5-.1.1-.2.2-.1.3V28l.3 1.8v.3l.4 2.7v1.3c0 .1-.1.1-.1 0s-.4-.3-.5-.5c-.1 0 0 .1-.1.2 0 .3.1.6.1 1 .2.9.4 1.9.7 2.8.2.7.5 1.3.7 1.9l.5 1.1c.4.8.8 1.6 1.3 2.3.2.3.4.7.6 1l.2.2s1.1 1.5 1.6 2.3l.6.9c.7.9 1.4 1.8 2.2 2.7l.2.2.4.4.5.5.5.6.1.1.1.1 1.7 1.6.2.2.1.1c.3.3.7.6 1 .9.2.2.4.3.6.4.1.1.3.1.4.2l.3.1c.1.1.3.1.4.2l.2.1h.1c.2 0 .4.2.6.1s-.2-.4-.3-.6c-.5-.7-1.1-1.2-.9-1.5.2-.2.7 0 .7.1.5.4 1.1.8 1.7 1.1.9.6 1.8 1 2.7 1.5.1.1.1.2.3.1h.1c.1 0 .1.1.2.1l.1.1h.1l.1.1c.1 0 .2 0 .3.1l.3.1c.1.1.3.1.4.2l.4.1c.2.1.5.1.8.3s.6.2.8.3.4 0 .5-.2c0-.1 0-.2-.1-.3l-.4-.4z"/></svg>